<?xml version="1.0" encoding="utf-8"?>
<!-- Generator: Adobe Illustrator 16.0.0, SVG Export Plug-In . SVG Version: 6.00 Build 0)  -->
<!DOCTYPE svg PUBLIC "-//W3C//DTD SVG 1.1//EN" "http://www.w3.org/Graphics/SVG/1.1/DTD/svg11.dtd">
<svg version="1.1" id="Layer_1" xmlns="http://www.w3.org/2000/svg" xmlns:xlink="http://www.w3.org/1999/xlink" x="0px" y="0px"
	 width="969.3px" height="1045.3px" viewBox="0 0 969.3 1045.3" enable-background="new 0 0 969.3 1045.3" xml:space="preserve">
<g>
	<text transform="matrix(1 0 0 1 153.8047 187.3228)"><tspan x="0" y="0" font-family="'MyriadPro-Regular'" font-size="36">U</tspan><tspan x="23.1" y="0" font-family="'MyriadPro-Regular'" font-size="36">sers</tspan></text>
	<text transform="matrix(1 0 0 1 153.8047 214.0835)"><tspan x="0" y="0" font-family="'MyriadPro-Regular'" font-size="18">-id</tspan><tspan x="0" y="21.6" font-family="'MyriadPro-Regular'" font-size="18">-</tspan><tspan x="5.8" y="21.6" font-family="'MyriadPro-Regular'" font-size="18">email</tspan><tspan x="0" y="43.2" font-family="'MyriadPro-Regular'" font-size="18">-pass</tspan><tspan x="38.7" y="43.2" font-family="'MyriadPro-Regular'" font-size="18">w</tspan><tspan x="51.8" y="43.2" font-family="'MyriadPro-Regular'" font-size="18">o</tspan><tspan x="61.6" y="43.2" font-family="'MyriadPro-Regular'" font-size="18">r</tspan><tspan x="67.4" y="43.2" font-family="'MyriadPro-Regular'" font-size="18">d_digest</tspan><tspan x="0" y="64.8" font-family="'MyriadPro-Regular'" font-size="18">-link_</tspan><tspan x="41.4" y="64.8" font-family="'MyriadPro-Regular'" font-size="18">k</tspan><tspan x="50.2" y="64.8" font-family="'MyriadPro-Regular'" font-size="18">a</tspan><tspan x="58.9" y="64.8" font-family="'MyriadPro-Regular'" font-size="18">r</tspan><tspan x="64.8" y="64.8" font-family="'MyriadPro-Regular'" font-size="18">ma</tspan><tspan x="0" y="86.4" font-family="'MyriadPro-Regular'" font-size="18">-post_</tspan><tspan x="47.7" y="86.4" font-family="'MyriadPro-Regular'" font-size="18">k</tspan><tspan x="56.5" y="86.4" font-family="'MyriadPro-Regular'" font-size="18">a</tspan><tspan x="65.2" y="86.4" font-family="'MyriadPro-Regular'" font-size="18">r</tspan><tspan x="71.1" y="86.4" font-family="'MyriadPro-Regular'" font-size="18">ma</tspan></text>
	<rect x="119.9" y="145.8" fill="none" stroke="#000000" stroke-miterlimit="10" width="202" height="183"/>
</g>
<g>
	<text transform="matrix(1 0 0 1 428.4521 187.3228)"><tspan x="0" y="0" font-family="'MyriadPro-Regular'" font-size="36">Subsc</tspan><tspan x="88.5" y="0" font-family="'MyriadPro-Regular'" font-size="36">r</tspan><tspan x="100.4" y="0" font-family="'MyriadPro-Regular'" font-size="36">iptions</tspan></text>
	<text transform="matrix(1 0 0 1 490.4238 212.3086)"><tspan x="0" y="0" font-family="'MyriadPro-Regular'" font-size="18">-id</tspan><tspan x="0" y="21.6" font-family="'MyriadPro-Regular'" font-size="18">-user_id</tspan><tspan x="0" y="43.2" font-family="'MyriadPro-Regular'" font-size="18">-subboa</tspan><tspan x="61.6" y="43.2" font-family="'MyriadPro-Regular'" font-size="18">r</tspan><tspan x="67.3" y="43.2" font-family="'MyriadPro-Regular'" font-size="18">d_id</tspan><tspan x="0" y="64.8" font-family="'MyriadPro-Regular'" font-size="18">-mode</tspan><tspan x="49.6" y="64.8" font-family="'MyriadPro-Regular'" font-size="18">r</tspan><tspan x="55.4" y="64.8" font-family="'MyriadPro-Regular'" font-size="18">a</tspan><tspan x="64" y="64.8" font-family="'MyriadPro-Regular'" font-size="18">t</tspan><tspan x="69.8" y="64.8" font-family="'MyriadPro-Regular'" font-size="18">or?</tspan></text>
	<rect x="405.9" y="136.8" fill="none" stroke="#000000" stroke-miterlimit="10" width="268" height="148"/>
</g>
<g>
	<text transform="matrix(1 0 0 1 758.0303 187.3228)"><tspan x="0" y="0" font-family="'MyriadPro-Regular'" font-size="36">Subboa</tspan><tspan x="115.7" y="0" font-family="'MyriadPro-Regular'" font-size="36">r</tspan><tspan x="127.1" y="0" font-family="'MyriadPro-Regular'" font-size="36">ds</tspan></text>
	<text transform="matrix(1 0 0 1 758.0303 243.6606)"><tspan x="0" y="0" font-family="'MyriadPro-Regular'" font-size="18">-id</tspan><tspan x="0" y="21.6" font-family="'MyriadPro-Regular'" font-size="18">-name</tspan><tspan x="0" y="43.2" font-family="'MyriadPro-Regular'" font-size="18">-</tspan><tspan x="5.8" y="43.2" font-family="'MyriadPro-Regular'" font-size="18">desc</tspan><tspan x="40.2" y="43.2" font-family="'MyriadPro-Regular'" font-size="18">r</tspan><tspan x="46.2" y="43.2" font-family="'MyriadPro-Regular'" font-size="18">iption</tspan></text>
	<rect x="743.9" y="136.8" fill="none" stroke="#000000" stroke-miterlimit="10" width="199" height="192"/>
</g>
<g>
	<text transform="matrix(1 0 0 1 611.5498 415.4922)" font-family="'MyriadPro-Regular'" font-size="36">Links</text>
	<text transform="matrix(1 0 0 1 611.5498 446.4771)"><tspan x="0" y="0" font-family="'MyriadPro-Regular'" font-size="18">-id</tspan><tspan x="0" y="21.6" font-family="'MyriadPro-Regular'" font-size="18">-subsc</tspan><tspan x="48" y="21.6" font-family="'MyriadPro-Regular'" font-size="18">r</tspan><tspan x="54" y="21.6" font-family="'MyriadPro-Regular'" font-size="18">iption_id</tspan><tspan x="0" y="43.2" font-family="'MyriadPro-Regular'" font-size="18">-u</tspan><tspan x="15.4" y="43.2" font-family="'MyriadPro-Regular'" font-size="18">r</tspan><tspan x="21.4" y="43.2" font-family="'MyriadPro-Regular'" font-size="18">l</tspan><tspan x="0" y="64.8" font-family="'MyriadPro-Regular'" font-size="18">-u</tspan><tspan x="15.4" y="64.8" font-family="'MyriadPro-Regular'" font-size="18">p</tspan><tspan x="25.6" y="64.8" font-family="'MyriadPro-Regular'" font-size="18">v</tspan><tspan x="34" y="64.8" font-family="'MyriadPro-Regular'" font-size="18">o</tspan><tspan x="43.9" y="64.8" font-family="'MyriadPro-Regular'" font-size="18">t</tspan><tspan x="49.8" y="64.8" font-family="'MyriadPro-Regular'" font-size="18">es</tspan><tspan x="0" y="86.4" font-family="'MyriadPro-Regular'" font-size="18">-</tspan><tspan x="5.8" y="86.4" font-family="'MyriadPro-Regular'" font-size="18">d</tspan><tspan x="16" y="86.4" font-family="'MyriadPro-Regular'" font-size="18">o</tspan><tspan x="25.8" y="86.4" font-family="'MyriadPro-Regular'" font-size="18">w</tspan><tspan x="39" y="86.4" font-family="'MyriadPro-Regular'" font-size="18">n</tspan><tspan x="48.8" y="86.4" font-family="'MyriadPro-Regular'" font-size="18">v</tspan><tspan x="57.2" y="86.4" font-family="'MyriadPro-Regular'" font-size="18">o</tspan><tspan x="67.1" y="86.4" font-family="'MyriadPro-Regular'" font-size="18">t</tspan><tspan x="73" y="86.4" font-family="'MyriadPro-Regular'" font-size="18">es</tspan></text>
	<rect x="598.9" y="372.8" fill="none" stroke="#000000" stroke-miterlimit="10" width="145" height="206"/>
</g>
<g>
	<text transform="matrix(1 0 0 1 279.1572 415.4922)"><tspan x="0" y="0" font-family="'MyriadPro-Regular'" font-size="36">P</tspan><tspan x="18.3" y="0" font-family="'MyriadPro-Regular'" font-size="36">osts</tspan></text>
	<text transform="matrix(1 0 0 1 279.1572 446.4771)"><tspan x="0" y="0" font-family="'MyriadPro-Regular'" font-size="18">-id</tspan><tspan x="0" y="21.6" font-family="'MyriadPro-Regular'" font-size="18">-subsc</tspan><tspan x="48" y="21.6" font-family="'MyriadPro-Regular'" font-size="18">r</tspan><tspan x="54" y="21.6" font-family="'MyriadPro-Regular'" font-size="18">iption_id</tspan><tspan x="0" y="43.2" font-family="'MyriadPro-Regular'" font-size="18">-</tspan><tspan x="5.8" y="43.2" font-family="'MyriadPro-Regular'" font-size="18">c</tspan><tspan x="13.8" y="43.2" font-family="'MyriadPro-Regular'" font-size="18">o</tspan><tspan x="23.7" y="43.2" font-family="'MyriadPro-Regular'" font-size="18">n</tspan><tspan x="33.6" y="43.2" font-family="'MyriadPro-Regular'" font-size="18">t</tspan><tspan x="39.5" y="43.2" font-family="'MyriadPro-Regular'" font-size="18">e</tspan><tspan x="48.5" y="43.2" font-family="'MyriadPro-Regular'" font-size="18">n</tspan><tspan x="58.4" y="43.2" font-family="'MyriadPro-Regular'" font-size="18">t</tspan><tspan x="0" y="64.8" font-family="'MyriadPro-Regular'" font-size="18">-u</tspan><tspan x="15.4" y="64.8" font-family="'MyriadPro-Regular'" font-size="18">p</tspan><tspan x="25.6" y="64.8" font-family="'MyriadPro-Regular'" font-size="18">v</tspan><tspan x="34" y="64.8" font-family="'MyriadPro-Regular'" font-size="18">o</tspan><tspan x="43.9" y="64.8" font-family="'MyriadPro-Regular'" font-size="18">t</tspan><tspan x="49.8" y="64.8" font-family="'MyriadPro-Regular'" font-size="18">es</tspan><tspan x="0" y="86.4" font-family="'MyriadPro-Regular'" font-size="18">-</tspan><tspan x="5.8" y="86.4" font-family="'MyriadPro-Regular'" font-size="18">d</tspan><tspan x="16" y="86.4" font-family="'MyriadPro-Regular'" font-size="18">o</tspan><tspan x="25.8" y="86.4" font-family="'MyriadPro-Regular'" font-size="18">w</tspan><tspan x="39" y="86.4" font-family="'MyriadPro-Regular'" font-size="18">n</tspan><tspan x="48.8" y="86.4" font-family="'MyriadPro-Regular'" font-size="18">v</tspan><tspan x="57.2" y="86.4" font-family="'MyriadPro-Regular'" font-size="18">o</tspan><tspan x="67.1" y="86.4" font-family="'MyriadPro-Regular'" font-size="18">t</tspan><tspan x="73" y="86.4" font-family="'MyriadPro-Regular'" font-size="18">es</tspan></text>
	<rect x="273.9" y="372.8" fill="none" stroke="#000000" stroke-miterlimit="10" width="132" height="206"/>
</g>
<g>
	<text transform="matrix(1 0 0 1 405.9175 650.7026)"><tspan x="0" y="0" font-family="'MyriadPro-Regular'" font-size="36">C</tspan><tspan x="20.5" y="0" font-family="'MyriadPro-Regular'" font-size="36">omme</tspan><tspan x="118.3" y="0" font-family="'MyriadPro-Regular'" font-size="36">n</tspan><tspan x="138.2" y="0" font-family="'MyriadPro-Regular'" font-size="36">ts</tspan></text>
	<text transform="matrix(1 0 0 1 418.5933 685.9146)"><tspan x="0" y="0" font-family="'MyriadPro-Regular'" font-size="18">-id</tspan><tspan x="0" y="21.6" font-family="'MyriadPro-Regular'" font-size="18">-subsc</tspan><tspan x="48" y="21.6" font-family="'MyriadPro-Regular'" font-size="18">r</tspan><tspan x="54" y="21.6" font-family="'MyriadPro-Regular'" font-size="18">iption_id</tspan><tspan x="0" y="43.2" font-family="'MyriadPro-Regular'" font-size="18">-</tspan><tspan x="5.8" y="43.2" font-family="'MyriadPro-Regular'" font-size="18">c</tspan><tspan x="13.8" y="43.2" font-family="'MyriadPro-Regular'" font-size="18">omme</tspan><tspan x="62.7" y="43.2" font-family="'MyriadPro-Regular'" font-size="18">n</tspan><tspan x="72.6" y="43.2" font-family="'MyriadPro-Regular'" font-size="18">table_</tspan><tspan x="119.8" y="43.2" font-family="'MyriadPro-Regular'" font-size="18">t</tspan><tspan x="125.9" y="43.2" font-family="'MyriadPro-Regular'" font-size="18">ype</tspan><tspan x="0" y="64.8" font-family="'MyriadPro-Regular'" font-size="18">-</tspan><tspan x="5.8" y="64.8" font-family="'MyriadPro-Regular'" font-size="18">c</tspan><tspan x="13.8" y="64.8" font-family="'MyriadPro-Regular'" font-size="18">omme</tspan><tspan x="62.7" y="64.8" font-family="'MyriadPro-Regular'" font-size="18">n</tspan><tspan x="72.6" y="64.8" font-family="'MyriadPro-Regular'" font-size="18">table_id</tspan><tspan x="0" y="86.4" font-family="'MyriadPro-Regular'" font-size="18">-</tspan><tspan x="5.8" y="86.4" font-family="'MyriadPro-Regular'" font-size="18">c</tspan><tspan x="13.8" y="86.4" font-family="'MyriadPro-Regular'" font-size="18">o</tspan><tspan x="23.7" y="86.4" font-family="'MyriadPro-Regular'" font-size="18">n</tspan><tspan x="33.6" y="86.4" font-family="'MyriadPro-Regular'" font-size="18">t</tspan><tspan x="39.5" y="86.4" font-family="'MyriadPro-Regular'" font-size="18">e</tspan><tspan x="48.5" y="86.4" font-family="'MyriadPro-Regular'" font-size="18">n</tspan><tspan x="58.4" y="86.4" font-family="'MyriadPro-Regular'" font-size="18">t</tspan><tspan x="0" y="108" font-family="'MyriadPro-Regular'" font-size="18">-u</tspan><tspan x="15.4" y="108" font-family="'MyriadPro-Regular'" font-size="18">p</tspan><tspan x="25.6" y="108" font-family="'MyriadPro-Regular'" font-size="18">v</tspan><tspan x="34" y="108" font-family="'MyriadPro-Regular'" font-size="18">o</tspan><tspan x="43.9" y="108" font-family="'MyriadPro-Regular'" font-size="18">t</tspan><tspan x="49.8" y="108" font-family="'MyriadPro-Regular'" font-size="18">es</tspan><tspan x="0" y="129.6" font-family="'MyriadPro-Regular'" font-size="18">-</tspan><tspan x="5.8" y="129.6" font-family="'MyriadPro-Regular'" font-size="18">d</tspan><tspan x="16" y="129.6" font-family="'MyriadPro-Regular'" font-size="18">o</tspan><tspan x="25.8" y="129.6" font-family="'MyriadPro-Regular'" font-size="18">w</tspan><tspan x="39" y="129.6" font-family="'MyriadPro-Regular'" font-size="18">n</tspan><tspan x="48.8" y="129.6" font-family="'MyriadPro-Regular'" font-size="18">v</tspan><tspan x="57.2" y="129.6" font-family="'MyriadPro-Regular'" font-size="18">o</tspan><tspan x="67.1" y="129.6" font-family="'MyriadPro-Regular'" font-size="18">t</tspan><tspan x="73" y="129.6" font-family="'MyriadPro-Regular'" font-size="18">es</tspan></text>
	<rect x="397.9" y="603.8" fill="none" stroke="#000000" stroke-miterlimit="10" width="193" height="229"/>
</g>
<g>
	<line fill="none" stroke="#000000" stroke-miterlimit="10" x1="321.9" y1="243.7" x2="405.9" y2="237.3"/>
	<line fill="none" stroke="#000000" stroke-miterlimit="10" x1="380.6" y1="237.3" x2="405.9" y2="214.1"/>
	<line fill="none" stroke="#000000" stroke-miterlimit="10" x1="380.6" y1="237.3" x2="405.9" y2="252.1"/>
</g>
<g>
	<line fill="none" stroke="#000000" stroke-miterlimit="10" x1="673.9" y1="197.2" x2="743.9" y2="204.2"/>
	<line fill="none" stroke="#000000" stroke-miterlimit="10" x1="671.4" y1="225.7" x2="697.5" y2="199.6"/>
	<line fill="none" stroke="#000000" stroke-miterlimit="10" x1="697.5" y1="199.6" x2="673.9" y2="173.2"/>
</g>
<g>
	<line fill="none" stroke="#000000" x1="504" y1="286.8" x2="450" y2="604.3"/>
	<line fill="none" stroke="#000000" x1="429.9" y1="603.8" x2="455.6" y2="571"/>
	<line fill="none" stroke="#000000" x1="455.6" y1="571" x2="470.9" y2="605.4"/>
</g>
<text transform="matrix(1 0 0 1 460.8477 49.2959)"><tspan x="0" y="0" font-family="'MyriadPro-Regular'" font-size="48" letter-spacing="-1">P</tspan><tspan x="24.3" y="0" font-family="'MyriadPro-Regular'" font-size="48">ostr</tspan></text>
<g>
	<line fill="none" stroke="#000000" x1="481.9" y1="604.3" x2="481.9" y2="497.3"/>
	<line fill="none" stroke="#000000" x1="481.4" y1="497.8" x2="429.9" y2="497.3"/>
	<line fill="none" stroke="#000000" x1="481.4" y1="497.8" x2="575.9" y2="497.4"/>
	<line fill="none" stroke="#000000" x1="532.9" y1="497.3" x2="533.3" y2="580.8"/>
	<polygon fill="none" stroke="#000000" points="598.7,497.4 587.3,503.9 575.9,510.5 575.9,497.4 575.9,484.3 587.3,490.8 	"/>
	<polygon fill="none" stroke="#000000" points="533.3,603.8 526.7,592.3 520.2,580.8 533.3,580.8 546.4,580.8 539.8,592.3 	"/>
	<polygon fill="none" stroke="#000000" points="406.8,497.3 418.3,490.7 429.9,484.2 429.9,497.3 429.9,510.4 418.3,503.8 	"/>
</g>
<path fill="none" stroke="#000000" d="M598.9,394.8"/>
<path fill="none" stroke="#000000" d="M323.9,301.9"/>
<path fill="none" stroke="#000000" d="M598.7,424.8"/>
<path fill="none" stroke="#000000" d="M622.5,372.8"/>
<line fill="none" stroke="#000000" stroke-miterlimit="10" x1="587.3" y1="284.8" x2="640.5" y2="372.8"/>
<line fill="none" stroke="#000000" stroke-miterlimit="10" x1="622.9" y1="343.3" x2="622.9" y2="373.3"/>
<line fill="none" stroke="#000000" stroke-miterlimit="10" x1="622.9" y1="343.3" x2="655.5" y2="373.3"/>
<line fill="none" stroke="#000000" stroke-miterlimit="10" x1="450" y1="284.8" x2="363.9" y2="372.8"/>
<line fill="none" stroke="#000000" stroke-miterlimit="10" x1="392.7" y1="343.3" x2="339.9" y2="372.8"/>
<line fill="none" stroke="#000000" stroke-miterlimit="10" x1="392.9" y1="343.3" x2="392.9" y2="373.3"/>
<text transform="matrix(1 0 0 1 229.4883 919.8198)"><tspan x="0" y="0" font-family="'MyriadPro-Regular'" font-size="36">post_u</tspan><tspan x="104.3" y="0" font-family="'MyriadPro-Regular'" font-size="36">p</tspan><tspan x="124.5" y="0" font-family="'MyriadPro-Regular'" font-size="36">v</tspan><tspan x="141.4" y="0" font-family="'MyriadPro-Regular'" font-size="36">o</tspan><tspan x="161.2" y="0" font-family="'MyriadPro-Regular'" font-size="36">t</tspan><tspan x="172.9" y="0" font-family="'MyriadPro-Regular'" font-size="36">es</tspan></text>
<text transform="matrix(1 0 0 1 10.4995 751.8267)"><tspan x="0" y="0" font-family="'MyriadPro-Regular'" font-size="36">post_d</tspan><tspan x="104.7" y="0" font-family="'MyriadPro-Regular'" font-size="36">o</tspan><tspan x="124.2" y="0" font-family="'MyriadPro-Regular'" font-size="36">w</tspan><tspan x="150.7" y="0" font-family="'MyriadPro-Regular'" font-size="36">n</tspan><tspan x="170.2" y="0" font-family="'MyriadPro-Regular'" font-size="36">v</tspan><tspan x="187.2" y="0" font-family="'MyriadPro-Regular'" font-size="36">o</tspan><tspan x="207" y="0" font-family="'MyriadPro-Regular'" font-size="36">t</tspan><tspan x="218.7" y="0" font-family="'MyriadPro-Regular'" font-size="36">es</tspan></text>
<line fill="none" stroke="#000000" stroke-miterlimit="10" x1="166.5" y1="328.8" x2="193.5" y2="718.3"/>
<line fill="none" stroke="#000000" stroke-miterlimit="10" x1="220.9" y1="328.8" x2="292.5" y2="888.3"/>
<text transform="matrix(1 0 0 1 659.9668 726.3286)"><tspan x="0" y="0" font-family="'MyriadPro-Regular'" font-size="36">link_d</tspan><tspan x="92.1" y="0" font-family="'MyriadPro-Regular'" font-size="36">o</tspan><tspan x="111.6" y="0" font-family="'MyriadPro-Regular'" font-size="36">w</tspan><tspan x="138.1" y="0" font-family="'MyriadPro-Regular'" font-size="36">n</tspan><tspan x="157.6" y="0" font-family="'MyriadPro-Regular'" font-size="36">v</tspan><tspan x="174.6" y="0" font-family="'MyriadPro-Regular'" font-size="36">o</tspan><tspan x="194.3" y="0" font-family="'MyriadPro-Regular'" font-size="36">t</tspan><tspan x="206" y="0" font-family="'MyriadPro-Regular'" font-size="36">es</tspan></text>
<text transform="matrix(1 0 0 1 622.4678 911.3198)"><tspan x="0" y="0" font-family="'MyriadPro-Regular'" font-size="36">link_u</tspan><tspan x="91.6" y="0" font-family="'MyriadPro-Regular'" font-size="36">p</tspan><tspan x="111.9" y="0" font-family="'MyriadPro-Regular'" font-size="36">v</tspan><tspan x="128.8" y="0" font-family="'MyriadPro-Regular'" font-size="36">o</tspan><tspan x="148.6" y="0" font-family="'MyriadPro-Regular'" font-size="36">t</tspan><tspan x="160.3" y="0" font-family="'MyriadPro-Regular'" font-size="36">es</tspan></text>
<line fill="none" stroke="#000000" stroke-miterlimit="10" x1="188.8" y1="650.7" x2="153.8" y2="718.3"/>
<line fill="none" stroke="#000000" stroke-miterlimit="10" x1="188.8" y1="650.7" x2="225.4" y2="718.3"/>
<line fill="none" stroke="#000000" stroke-miterlimit="10" x1="285.4" y1="832.8" x2="256.7" y2="888.3"/>
<line fill="none" stroke="#000000" stroke-miterlimit="10" x1="285.4" y1="832.8" x2="309" y2="888.3"/>
<line fill="none" stroke="#000000" stroke-miterlimit="10" x1="321.9" y1="328.8" x2="768.4" y2="693.8"/>
<line fill="none" stroke="#000000" stroke-miterlimit="10" x1="725.7" y1="659.5" x2="732" y2="693.8"/>
<line fill="none" stroke="#000000" stroke-miterlimit="10" x1="725.7" y1="659.5" x2="792" y2="693.3"/>
<line fill="none" stroke="#000000" stroke-miterlimit="10" x1="285.4" y1="328.8" x2="763.4" y2="881.3"/>
<line fill="none" stroke="#000000" stroke-miterlimit="10" x1="719.9" y1="832.8" x2="718.5" y2="880.3"/>
<line fill="none" stroke="#000000" stroke-miterlimit="10" x1="719.9" y1="832.8" x2="792" y2="880.3"/>
<g>
	<line fill="none" stroke="#000000" stroke-miterlimit="10" x1="331.3" y1="601.8" x2="331.4" y2="888.3"/>
	<line fill="none" stroke="#000000" stroke-miterlimit="10" x1="331.4" y1="730.8" x2="375.9" y2="731.4"/>
	<polygon fill="none" stroke="#000000" points="398.7,731.4 387.3,737.9 375.9,744.5 375.9,731.4 375.9,718.3 387.3,724.8 	"/>
	<polygon fill="none" stroke="#000000" points="331.3,579 337.8,589.4 344.4,601.8 331.3,601.8 318.2,601.8 324.7,590.4 	"/>
</g>
<rect x="210.9" y="888.8" fill="none" stroke="#000000" stroke-miterlimit="10" width="232" height="133"/>
<rect x="613.9" y="880.8" fill="none" stroke="#000000" stroke-miterlimit="10" width="216" height="110"/>
<text transform="matrix(1 0 0 1 252.3818 945.2524)"><tspan x="0" y="0" font-family="'MyriadPro-Regular'" font-size="18">-id</tspan><tspan x="0" y="21.6" font-family="'MyriadPro-Regular'" font-size="18">-user_id</tspan><tspan x="0" y="43.2" font-family="'MyriadPro-Regular'" font-size="18">-post_u</tspan><tspan x="57.7" y="43.2" font-family="'MyriadPro-Regular'" font-size="18">p</tspan><tspan x="67.8" y="43.2" font-family="'MyriadPro-Regular'" font-size="18">v</tspan><tspan x="76.2" y="43.2" font-family="'MyriadPro-Regular'" font-size="18">otable_</tspan><tspan x="133.3" y="43.2" font-family="'MyriadPro-Regular'" font-size="18">t</tspan><tspan x="139.4" y="43.2" font-family="'MyriadPro-Regular'" font-size="18">ype</tspan><tspan x="0" y="64.8" font-family="'MyriadPro-Regular'" font-size="18">-post_u</tspan><tspan x="57.7" y="64.8" font-family="'MyriadPro-Regular'" font-size="18">p</tspan><tspan x="67.8" y="64.8" font-family="'MyriadPro-Regular'" font-size="18">v</tspan><tspan x="76.2" y="64.8" font-family="'MyriadPro-Regular'" font-size="18">otable_id</tspan></text>
<text transform="matrix(1 0 0 1 32.3818 784.2524)"><tspan x="0" y="0" font-family="'MyriadPro-Regular'" font-size="18">-id</tspan><tspan x="0" y="21.6" font-family="'MyriadPro-Regular'" font-size="18">-user_id</tspan><tspan x="0" y="43.2" font-family="'MyriadPro-Regular'" font-size="18">-post_d</tspan><tspan x="57.9" y="43.2" font-family="'MyriadPro-Regular'" font-size="18">o</tspan><tspan x="67.6" y="43.2" font-family="'MyriadPro-Regular'" font-size="18">w</tspan><tspan x="80.9" y="43.2" font-family="'MyriadPro-Regular'" font-size="18">n</tspan><tspan x="90.6" y="43.2" font-family="'MyriadPro-Regular'" font-size="18">v</tspan><tspan x="99.1" y="43.2" font-family="'MyriadPro-Regular'" font-size="18">otable_</tspan><tspan x="156.1" y="43.2" font-family="'MyriadPro-Regular'" font-size="18">t</tspan><tspan x="162.3" y="43.2" font-family="'MyriadPro-Regular'" font-size="18">ype</tspan><tspan x="0" y="64.8" font-family="'MyriadPro-Regular'" font-size="18">-post_d</tspan><tspan x="57.9" y="64.8" font-family="'MyriadPro-Regular'" font-size="18">o</tspan><tspan x="67.6" y="64.8" font-family="'MyriadPro-Regular'" font-size="18">w</tspan><tspan x="80.9" y="64.8" font-family="'MyriadPro-Regular'" font-size="18">n</tspan><tspan x="90.6" y="64.8" font-family="'MyriadPro-Regular'" font-size="18">v</tspan><tspan x="99.1" y="64.8" font-family="'MyriadPro-Regular'" font-size="18">otable_id</tspan></text>
<line fill="none" stroke="#000000" stroke-miterlimit="10" x1="641.9" y1="880.3" x2="641.9" y2="579.3"/>
<rect x="10.9" y="718.8" fill="none" stroke="#000000" stroke-miterlimit="10" width="249" height="151"/>
<rect x="659.9" y="693.8" fill="none" stroke="#000000" stroke-miterlimit="10" width="253" height="106"/>
<text transform="matrix(1 0 0 1 696.3818 744.2524)"><tspan x="0" y="0" font-family="'MyriadPro-Regular'" font-size="18">-id</tspan><tspan x="0" y="21.6" font-family="'MyriadPro-Regular'" font-size="18">-user_id</tspan><tspan x="0" y="43.2" font-family="'MyriadPro-Regular'" font-size="18">-link_id</tspan></text>
<text transform="matrix(1 0 0 1 639.3818 941.2524)"><tspan x="0" y="0" font-family="'MyriadPro-Regular'" font-size="18">-id</tspan><tspan x="0" y="21.6" font-family="'MyriadPro-Regular'" font-size="18">-user_id</tspan><tspan x="0" y="43.2" font-family="'MyriadPro-Regular'" font-size="18">-link_id</tspan></text>
</svg>
